<?xml version="1.0" encoding="UTF-8"?> <svg xmlns="http://www.w3.org/2000/svg" width="127" height="23" viewBox="0 0 127 23" fill="none"> <path d="M12.1714 16.2752C12.1714 16.2752 16.943 6.92933 17.1704 6.48472C17.3951 6.04514 17.7286 5.74707 18.2197 5.65272C18.9347 5.51536 19.4842 5.93504 19.7385 6.43749C19.9196 6.79541 21.6452 10.2083 21.8582 10.6241C22.0712 11.04 22.4103 11.5456 22.7285 11.7633C23.1186 12.0302 23.6186 11.989 23.91 11.7744C24.2014 11.5598 24.8735 10.6066 25.0758 10.2022C26.1545 8.04592 26.9329 6.46861 28.0057 4.3093C28.029 4.26246 28.0492 4.21406 28.0849 4.13559C27.9693 4.17775 27.881 4.21219 27.7914 4.2422C27.5236 4.33183 27.2611 4.45436 26.9861 4.50203C26.0296 4.66789 25.1818 3.74073 25.3939 2.77819C25.5072 2.26377 25.8024 1.89734 26.2885 1.70868C27.6843 1.16688 29.0807 0.626376 30.4809 0.0960883C31.2282 -0.186937 32.0282 0.174163 32.3153 0.930901C32.8574 2.35974 33.3894 3.79263 33.9125 5.22877C34.1828 5.97092 33.8048 6.78667 33.0845 7.07203C32.3576 7.35998 31.5483 7.01167 31.244 6.2727C31.1271 5.98884 31.0274 5.69766 30.9193 5.41001C30.9052 5.37234 30.888 5.33585 30.8621 5.27526C30.8306 5.33091 30.8077 5.36707 30.7888 5.40522C28.762 9.4858 26.7352 13.5663 24.7097 17.6475C24.4923 18.0855 24.173 18.3997 23.6924 18.5058C22.9872 18.6616 22.3717 18.3621 22.0417 17.7088C21.6265 16.8867 18.4851 10.6067 18.4569 10.5568C18.4281 10.6064 13.8774 19.5326 13.4817 20.3001C13.2727 20.7053 12.9659 20.9993 12.5169 21.0968C11.7838 21.256 11.1933 20.9909 10.8563 20.3301C10.226 19.094 9.64263 17.9309 9.02295 16.6892C8.75797 16.1582 8.3937 15.4879 7.97031 15.1766C7.54692 14.8652 6.89863 14.8806 6.41756 15.3086C6.10572 15.586 5.87193 15.9253 5.68243 16.2958C5.12518 17.3852 3.13386 21.3226 2.68696 22.1974C2.49174 22.5796 2.1939 22.8496 1.77824 22.9569C1.19262 23.1081 0.607068 22.8547 0.282195 22.3065C-0.0630117 21.7241 -0.0954144 21.1127 0.206589 20.5065C0.975072 18.9639 4.81428 11.3737 5.95397 9.11529C6.22377 8.58064 6.63156 8.25051 7.23887 8.23133C7.83014 8.21266 8.24913 8.50948 8.52533 9.01966C8.74729 9.42965 12.1714 16.2752 12.1714 16.2752Z" fill="#50DE89"></path> <path d="M49 10.8053C49 12.6848 48.5156 14.2805 47.5476 15.593C46.484 17.0351 45.0632 17.7561 43.2857 17.7561C41.984 17.7561 40.9047 17.2603 40.0476 16.2683H39.9762V20.9268C39.9762 22.3087 39.4918 23 38.5238 23C37.5078 23 37 22.3087 37 20.9268V6.00001C37 4.66693 37.5 4 38.5 4C39.1347 4 39.5632 4.30107 39.7857 4.90244C39.8173 5.04878 39.8809 5.2523 39.9762 5.5122C40.6603 4.5042 41.7824 4 43.3422 4C45.1406 4 46.5569 4.69703 47.5915 6.09033C48.5305 7.33804 49 8.90969 49 10.8053ZM45.9762 10.83C45.9762 9.73743 45.7537 8.82965 45.3095 8.10633C44.7857 7.23896 44.0156 6.80489 43 6.80489C41.984 6.80489 41.1905 7.20656 40.619 8.00992C40.1109 8.71723 39.8571 9.609 39.8571 10.6852V11.2877C39.8571 12.2679 40.1268 13.1117 40.6667 13.8186C41.2537 14.5739 42.0238 14.9512 42.9762 14.9512C44.0078 14.9512 44.7935 14.5095 45.3333 13.6258C45.7619 12.8864 45.9762 11.9547 45.9762 10.83Z" fill="#343434"></path> <path d="M63 15.9608C63 17.3204 62.5175 18 61.5534 18C60.9683 18 60.5729 17.7303 60.3676 17.19C60.3202 16.9775 60.2408 16.6828 60.1304 16.3061H60.1067C59.2211 17.4356 58.0513 18 56.5968 18C54.8893 18 53.5057 17.2733 52.4466 15.8195C51.4821 14.4813 51 12.8956 51 11.0619C51 9.62484 51.3002 8.33646 51.9012 7.19641C52.5334 5.95785 53.4427 5.05755 54.6285 4.49549C55.324 4.16542 56.0277 4 56.7391 4C58.0828 4 59.2133 4.54805 60.1304 5.64413C60.1779 5.49466 60.249 5.27047 60.3439 4.97153C60.581 4.3904 60.9842 4.09964 61.5534 4.09964C62.5175 4.09964 63 4.77107 63 6.11394V15.9608V15.9608ZM57.0593 6.9146C56.0277 6.9146 55.2417 7.34392 54.7022 8.20218C54.242 8.94523 54.0119 9.88601 54.0119 11.0249C54.0119 12.1311 54.2338 13.0556 54.6785 13.7982C55.218 14.6896 55.988 15.1352 56.9881 15.1352C58.0198 15.1352 58.8053 14.6977 59.3452 13.8227C59.8055 13.0964 60.0356 12.1638 60.0356 11.0249C60.0356 9.9191 59.8132 8.99467 59.3689 8.25162C58.829 7.36027 58.059 6.9146 57.0593 6.9146Z" fill="#343434"></path> <path d="M71 5.54727C71 6.0797 70.7273 6.50391 70.1818 6.81993C69.6211 7.06954 69.0604 7.31915 68.5 7.56875C67.8182 7.90156 67.3711 8.32578 67.1591 8.84141C66.9773 9.27423 66.8864 9.93126 66.8864 10.8129V16.0035C66.8864 17.3348 66.4013 18 65.4318 18C64.4773 18 64 17.3262 64 15.9785V6.14649C64 4.79883 64.4773 4.125 65.4318 4.125C65.9922 4.125 66.3711 4.40001 66.5682 4.95001C66.6136 5.20001 66.7046 5.5168 66.8409 5.90001H66.8636C67.1666 5.3836 67.5643 4.9375 68.0568 4.5625C68.549 4.1875 69.0529 4 69.5682 4C69.9922 4 70.337 4.14141 70.6023 4.42423C70.8672 4.70704 71 5.08165 71 5.54727Z" fill="#343434"></path> <path d="M81 5.69723C81 6.33581 80.6952 6.745 80.0857 6.92482C79.7976 7.00704 79.2222 7.04777 78.3587 7.04777V16.0109C78.3587 17.3372 77.8167 18 76.7333 18C75.7004 18 75.1841 17.3295 75.1841 15.9882V7.05738H74.7016C74.2611 7.05738 73.8675 6.93443 73.5206 6.68853C73.1734 6.44262 73 6.11489 73 5.70491C73 4.80354 73.7278 4.35246 75.1841 4.35246V1.96721C75.1841 0.65587 75.7087 0 76.7587 0C77.8254 0 78.3587 0.663162 78.3587 1.98911V4.3467C79.2222 4.3467 79.7976 4.38781 80.0857 4.46927C80.6952 4.64946 81 5.05865 81 5.69723Z" fill="#343434"></path> <path d="M93 15.1129C93 16.371 92.491 17 91.4738 17C90.4884 17 89.9957 16.371 89.9957 15.1129V9.45162C89.9957 7.51028 89.1596 6.53943 87.4882 6.53943C85.8323 6.53943 85.0043 7.50591 85.0043 9.43887V15.075C85.0043 16.3586 84.5116 17 83.5262 17C82.5086 17 82 16.3579 82 15.0732V5.97338C82 4.70439 82.4968 4.0699 83.4903 4.0699C84.0263 4.0699 84.4207 4.27958 84.6731 4.69893C84.7519 4.91661 84.8387 5.14159 84.9333 5.37456L84.957 5.42115C85.7613 4.47396 86.9045 4 88.3871 4C89.8852 4 91.0284 4.43902 91.8172 5.31631C92.6056 6.19397 93 7.37815 93 8.86918V15.1129V15.1129Z" fill="#343434"></path> <path d="M107 10.2716C107 10.8148 106.83 11.2388 106.491 11.5432C106.151 11.848 105.713 12 105.176 12H98C98.0314 12.9715 98.3628 13.7573 98.9947 14.358C99.6262 14.9591 100.408 15.2593 101.34 15.2593C102.113 15.2593 102.986 15 103.957 14.4815C104.928 13.963 105.461 13.7037 105.556 13.7037C106.345 13.7037 106.74 14.1235 106.74 14.963C106.74 15.2265 106.622 15.5228 106.386 15.8519C105.882 16.5432 105.11 17.0864 104.071 17.4815C103.157 17.8272 102.22 18 101.26 18C99.3856 18 97.8583 17.3086 96.6772 15.9259C95.5588 14.6092 95 12.9549 95 10.963C95 9.03703 95.5706 7.39506 96.7126 6.03704C97.8542 4.679 99.3383 4 101.165 4C102.772 4 104.145 4.62153 105.287 5.8642C106.429 7.10725 107 8.57638 107 10.2716ZM104.047 9.85185C104.016 8.93016 103.744 8.15663 103.232 7.53086C102.72 6.90548 102.031 6.5926 101.165 6.5926C100.299 6.5926 99.5709 6.90548 98.9803 7.53086C98.3898 8.15663 98.0627 8.93016 98 9.85185H104.047Z" fill="#343434"></path> <path d="M116 5.54727C116 6.0797 115.727 6.50391 115.182 6.81993C114.621 7.06954 114.06 7.31915 113.5 7.56875C112.818 7.90156 112.371 8.32578 112.159 8.84141C111.977 9.27423 111.886 9.93126 111.886 10.8129V16.0035C111.886 17.3348 111.401 18 110.432 18C109.477 18 109 17.3262 109 15.9785V6.14649C109 4.79883 109.477 4.125 110.432 4.125C110.992 4.125 111.371 4.40001 111.568 4.95001C111.614 5.20001 111.705 5.5168 111.841 5.90001H111.864C112.167 5.3836 112.564 4.9375 113.057 4.5625C113.549 4.1875 114.053 4 114.568 4C114.992 4 115.337 4.14141 115.602 4.42423C115.867 4.70704 116 5.08165 116 5.54727Z" fill="#343434"></path> <path d="M127 13.7606C127 15.0915 126.458 16.1514 125.374 16.9401C124.403 17.6468 123.238 18 121.879 18C119.969 18 118.513 17.4662 117.51 16.3979C117.17 16.0366 117 15.6504 117 15.2394C117 14.3028 117.461 13.8345 118.383 13.8345C118.707 13.8345 119.229 14.0687 119.949 14.537C120.669 15.0053 121.353 15.2394 122 15.2394C122.485 15.2394 122.906 15.1408 123.262 14.9437C123.699 14.7137 123.917 14.3768 123.917 13.9331C123.917 13.3747 123.359 12.8405 122.243 12.331C120.43 11.5261 119.403 11.0412 119.16 10.8768C118.044 10.1211 117.485 9.16797 117.485 8.0176C117.485 6.76904 117.979 5.76655 118.966 5.01057C119.856 4.33699 120.94 4 122.218 4C123.092 4 124.006 4.21374 124.961 4.64085C126.11 5.15036 126.684 5.79121 126.684 6.56338C126.684 6.94157 126.563 7.25776 126.32 7.51233C126.078 7.76727 125.77 7.89437 125.398 7.89437C125.107 7.89437 124.605 7.69719 123.893 7.30281C123.181 6.90845 122.59 6.71126 122.121 6.71126C121.7 6.71126 121.336 6.80985 121.029 7.00704C120.657 7.22079 120.471 7.53312 120.471 7.94366C120.471 8.33802 120.722 8.65845 121.223 8.90493C122.064 9.28312 122.914 9.66092 123.772 10.0387C124.807 10.5317 125.584 11.0085 126.102 11.4683C126.7 12.0106 127 12.7746 127 13.7606Z" fill="#343434"></path> </svg> 